<?xml version="1.0" encoding="UTF-8"?>
<!DOCTYPE svg PUBLIC "-//W3C//DTD SVG 1.1//EN" "http://www.w3.org/Graphics/SVG/1.1/DTD/svg11.dtd">
<svg xmlns="http://www.w3.org/2000/svg" xmlns:xlink="http://www.w3.org/1999/xlink" version="1.1" width="351px" height="282px" viewBox="-0.5 -0.5 351 282" style="background-color: rgb(255, 255, 255);"><defs/><g><rect x="100" y="30" width="140" height="240" rx="4.2" ry="4.2" fill="#d5e8d4" stroke="#4d9900" stroke-dasharray="3 3" pointer-events="all"/><rect x="100.5" y="105" width="139" height="125" fill="#dae8fc" stroke="none" pointer-events="all"/><g fill="rgb(0, 0, 0)" font-family="Helvetica" font-style="italic" font-size="11px"><text x="102" y="114.5">VPR</text></g><rect x="100.5" y="65" width="139" height="40" fill="#fff2cc" stroke="none" pointer-events="all"/><g fill="rgb(0, 0, 0)" font-family="Helvetica" font-style="italic" font-size="11px"><text x="102" y="74.5">Yosys</text></g><path d="M 230 90 L 251.32 90" fill="none" stroke="#b85450" stroke-width="1.5" stroke-miterlimit="10" pointer-events="stroke"/><path d="M 257.82 90 L 251.32 92.17 L 251.32 87.83 Z" fill="#b85450" stroke="#b85450" stroke-width="1.5" stroke-miterlimit="10" pointer-events="all"/><rect x="110" y="80" width="120" height="20" rx="3" ry="3" fill="#f5f5f5" stroke="#000000" pointer-events="all"/><g fill="#000000" font-family="Helvetica" font-weight="bold" text-anchor="middle" font-size="12px"><text x="169.5" y="94.5">Logic Synthesis</text></g><rect x="110" y="40" width="120" height="20" rx="3" ry="3" fill="#f5f5f5" stroke="#000000" pointer-events="all"/><g fill="#000000" font-family="Helvetica" font-weight="bold" text-anchor="middle" font-size="12px"><text x="169.5" y="54.5">Flow Setup</text></g><rect x="110" y="120" width="120" height="20" rx="3" ry="3" fill="#f5f5f5" stroke="#000000" pointer-events="all"/><g fill="#000000" font-family="Helvetica" font-weight="bold" text-anchor="middle" font-size="12px"><text x="169.5" y="134.5">Pack</text></g><rect x="110" y="160" width="120" height="20" rx="3" ry="3" fill="#f5f5f5" stroke="#000000" pointer-events="all"/><g fill="#000000" font-family="Helvetica" font-weight="bold" text-anchor="middle" font-size="12px"><text x="169.5" y="174.5">Place</text></g><rect x="110" y="200" width="120" height="20" rx="3" ry="3" fill="#f5f5f5" stroke="#000000" pointer-events="all"/><g fill="#000000" font-family="Helvetica" font-weight="bold" text-anchor="middle" font-size="12px"><text x="169.5" y="214.5">Route</text></g><rect x="110" y="240" width="120" height="20" rx="3" ry="3" fill="#f5f5f5" stroke="#000000" pointer-events="all"/><g fill="#000000" font-family="Helvetica" font-weight="bold" text-anchor="middle" font-size="12px"><text x="169.5" y="254.5">Fabric Generation</text></g><path d="M 162.5 66.11 L 170.33 66.11 L 170.33 63 L 177.5 70.5 L 170.33 78 L 170.33 74.89 L 162.5 74.89 Z" fill="#000000" stroke="rgb(0, 0, 0)" stroke-miterlimit="10" transform="rotate(90,170,70.5)" pointer-events="all"/><path d="M 162.5 106.11 L 170.33 106.11 L 170.33 103 L 177.5 110.5 L 170.33 118 L 170.33 114.89 L 162.5 114.89 Z" fill="#000000" stroke="rgb(0, 0, 0)" stroke-miterlimit="10" transform="rotate(90,170,110.5)" pointer-events="all"/><path d="M 162.5 146.11 L 170.33 146.11 L 170.33 143 L 177.5 150.5 L 170.33 158 L 170.33 154.89 L 162.5 154.89 Z" fill="#000000" stroke="rgb(0, 0, 0)" stroke-miterlimit="10" transform="rotate(90,170,150.5)" pointer-events="all"/><path d="M 162.5 186.11 L 170.33 186.11 L 170.33 183 L 177.5 190.5 L 170.33 198 L 170.33 194.89 L 162.5 194.89 Z" fill="#000000" stroke="rgb(0, 0, 0)" stroke-miterlimit="10" transform="rotate(90,170,190.5)" pointer-events="all"/><path d="M 162.5 226.11 L 170.33 226.11 L 170.33 223 L 177.5 230.5 L 170.33 238 L 170.33 234.89 L 162.5 234.89 Z" fill="#000000" stroke="rgb(0, 0, 0)" stroke-miterlimit="10" transform="rotate(90,170,230.5)" pointer-events="all"/><rect x="100" y="10" width="140" height="20" fill="none" stroke="none" pointer-events="all"/><g fill="#4D9900" font-family="Helvetica" font-weight="bold" font-style="italic" text-anchor="middle" font-size="12px"><text x="169.5" y="24.5">OpenFPGA Flow</text></g><rect x="259.5" y="80" width="80.5" height="20" fill="none" stroke="none" pointer-events="all"/><g fill="#B85450" font-family="Helvetica" font-weight="bold" font-size="11px"><text x="261" y="92">report-yosys</text></g><rect x="259.5" y="150" width="80.5" height="40" fill="none" stroke="none" pointer-events="all"/><g fill="#B85450" font-family="Helvetica" font-weight="bold" font-size="11px"><text x="261" y="159">report-vpr</text><text x="261" y="172">report-timing</text><text x="261" y="185">report-paths</text></g><path d="M 10 50 L 90 50" fill="none" stroke="rgb(0, 0, 0)" stroke-miterlimit="10" stroke-dasharray="3 3" pointer-events="stroke"/><path d="M 79.71 89.86 L 90 89.74" fill="none" stroke="rgb(0, 0, 0)" stroke-miterlimit="10" stroke-dasharray="3 3" pointer-events="stroke"/><path d="M 79.71 129.86 L 90 129.74" fill="none" stroke="rgb(0, 0, 0)" stroke-miterlimit="10" stroke-dasharray="3 3" pointer-events="stroke"/><path d="M 79.71 169.86 L 90 169.74" fill="none" stroke="rgb(0, 0, 0)" stroke-miterlimit="10" stroke-dasharray="3 3" pointer-events="stroke"/><path d="M 79.6 210 L 90 210" fill="none" stroke="rgb(0, 0, 0)" stroke-miterlimit="10" stroke-dasharray="3 3" pointer-events="stroke"/><rect x="10" y="10" width="80" height="40" fill="none" stroke="none" pointer-events="all"/><g fill="#B85450" font-family="Helvetica" font-weight="bold" font-style="italic" text-anchor="middle" font-size="11px"><text x="49.5" y="27.5">Launchers</text><text x="49.5" y="40.5">Optimizers</text></g><rect x="239.5" y="10" width="100.5" height="40" fill="none" stroke="none" pointer-events="all"/><g fill="#B85450" font-family="Helvetica" font-weight="bold" font-style="italic" text-anchor="middle" font-size="11px"><text x="289.25" y="27.5">Reports</text><text x="289.25" y="40.5">Analyzers</text></g><rect x="250" y="210" width="90" height="60" fill="none" stroke="rgb(0, 0, 0)" pointer-events="all"/><g fill="#B85450" font-family="Helvetica" font-weight="bold" font-size="11px"><text x="251.5" y="222.5">analyze-synth</text><text x="251.5" y="235.5">analyze-packing</text><text x="251.5" y="248.5">analyze-placing</text><text x="251.5" y="261.5">analyze-routing</text></g><path d="M 72.44 162.75 C 69.4 160.9 65.54 161.27 62.87 163.66 C 60.21 166.05 59.34 169.93 60.71 173.28 C 62.08 176.63 65.39 178.7 68.91 178.41 C 72.44 178.13 75.39 175.55 76.24 172.02" fill="none" stroke="#b85450" stroke-width="3" stroke-miterlimit="10" transform="rotate(40,68.5,170)" pointer-events="all"/><path d="M 75.42 172.02 L 76.65 169.92 L 77 172.44 Z" fill="none" stroke="#b85450" stroke-width="3" stroke-miterlimit="10" transform="rotate(40,68.5,170)" pointer-events="all"/><path d="M 10 169.74 L 57.45 169.95" fill="none" stroke="rgb(0, 0, 0)" stroke-miterlimit="10" stroke-dasharray="3 3" pointer-events="stroke"/><path d="M 72.44 202.75 C 69.4 200.9 65.54 201.27 62.87 203.66 C 60.21 206.05 59.34 209.93 60.71 213.28 C 62.08 216.63 65.39 218.7 68.91 218.41 C 72.44 218.13 75.39 215.55 76.24 212.02" fill="none" stroke="#b85450" stroke-width="3" stroke-miterlimit="10" transform="rotate(40,68.5,210)" pointer-events="all"/><path d="M 75.42 212.02 L 76.65 209.92 L 77 212.44 Z" fill="none" stroke="#b85450" stroke-width="3" stroke-miterlimit="10" transform="rotate(40,68.5,210)" pointer-events="all"/><path d="M 10 210 L 57.4 210" fill="none" stroke="rgb(0, 0, 0)" stroke-miterlimit="10" stroke-dasharray="3 3" pointer-events="stroke"/><path d="M 72.44 122.75 C 69.4 120.9 65.54 121.27 62.87 123.66 C 60.21 126.05 59.34 129.93 60.71 133.28 C 62.08 136.63 65.39 138.7 68.91 138.41 C 72.44 138.13 75.39 135.55 76.24 132.02" fill="none" stroke="#b85450" stroke-width="3" stroke-miterlimit="10" transform="rotate(40,68.5,130)" pointer-events="all"/><path d="M 75.42 132.02 L 76.65 129.92 L 77 132.44 Z" fill="none" stroke="#b85450" stroke-width="3" stroke-miterlimit="10" transform="rotate(40,68.5,130)" pointer-events="all"/><path d="M 10 129.74 L 57.45 129.95" fill="none" stroke="rgb(0, 0, 0)" stroke-miterlimit="10" stroke-dasharray="3 3" pointer-events="stroke"/><path d="M 72.44 82.75 C 69.4 80.9 65.54 81.27 62.87 83.66 C 60.21 86.05 59.34 89.93 60.71 93.28 C 62.08 96.63 65.39 98.7 68.91 98.41 C 72.44 98.13 75.39 95.55 76.24 92.02" fill="none" stroke="#b85450" stroke-width="3" stroke-miterlimit="10" transform="rotate(40,68.5,90)" pointer-events="all"/><path d="M 75.42 92.02 L 76.65 89.92 L 77 92.44 Z" fill="none" stroke="#b85450" stroke-width="3" stroke-miterlimit="10" transform="rotate(40,68.5,90)" pointer-events="all"/><path d="M 10 90 L 57.4 90" fill="none" stroke="rgb(0, 0, 0)" stroke-miterlimit="10" stroke-dasharray="3 3" pointer-events="stroke"/><rect x="43.5" y="50" width="50" height="20" fill="none" stroke="none" pointer-events="all"/><g fill="#B85450" font-family="Helvetica" font-weight="bold" text-anchor="middle" font-size="11px"><text x="68" y="62">run-dse</text></g><rect x="-15" y="75" width="70" height="20" fill="none" stroke="none" transform="rotate(-90,20,85)" pointer-events="all"/><g fill="#B85450" font-family="Helvetica" font-weight="bold" font-size="11px" transform="rotate(-90,18,118)"><text x="17.5" y="122">run-softcore</text></g><path d="M 30 50 L 30 200.76" fill="none" stroke="#b85450" stroke-width="2" stroke-miterlimit="10" pointer-events="stroke"/><path d="M 30 207.76 L 27.67 200.76 L 32.33 200.76 Z" fill="#b85450" stroke="#b85450" stroke-width="2" stroke-miterlimit="10" pointer-events="all"/><path d="M 247.3 170 L 251.82 170" fill="none" stroke="#b85450" stroke-width="1.5" stroke-miterlimit="10" pointer-events="stroke"/><path d="M 258.32 170 L 251.82 172.17 L 251.82 167.83 Z" fill="#b85450" stroke="#b85450" stroke-width="1.5" stroke-miterlimit="10" pointer-events="all"/><path d="M 249 120 L 243.05 120 Q 237.1 120 237.1 130 L 237.1 160 Q 237.1 170 234.55 170 L 233.28 170 Q 232 170 234.55 170 L 235.82 170 Q 237.1 170 237.1 180 L 237.1 210 Q 237.1 220 243.05 220 L 249 220" fill="none" stroke="#b85450" stroke-width="1.5" stroke-miterlimit="10" transform="translate(240.5,0)scale(-1,1)translate(-240.5,0)" pointer-events="all"/></g></svg>