<?xml version="1.0" encoding="UTF-8"?>
<!DOCTYPE svg PUBLIC "-//W3C//DTD SVG 1.1//EN" "http://www.w3.org/Graphics/SVG/1.1/DTD/svg11.dtd">
<svg xmlns="http://www.w3.org/2000/svg" xmlns:xlink="http://www.w3.org/1999/xlink" version="1.1" width="436px" height="282px" viewBox="-0.5 -0.5 436 282" style="background-color: rgb(255, 255, 255);"><defs/><g><rect x="114" y="30" width="140" height="240" rx="4.2" ry="4.2" fill="#d5e8d4" stroke="#4d9900" stroke-dasharray="3 3" pointer-events="all"/><rect x="114.5" y="105" width="139" height="125" fill="#dae8fc" stroke="none" pointer-events="all"/><g fill="rgb(0, 0, 0)" font-family="Helvetica" font-style="italic" font-size="11px"><text x="116" y="114.5">VPR</text></g><rect x="114.5" y="65" width="139" height="40" fill="#fff2cc" stroke="none" pointer-events="all"/><g fill="rgb(0, 0, 0)" font-family="Helvetica" font-style="italic" font-size="11px"><text x="116" y="74.5">Yosys</text></g><rect x="124" y="80" width="120" height="20" rx="3" ry="3" fill="#f5f5f5" stroke="#000000" pointer-events="all"/><g fill="#000000" font-family="Helvetica" font-weight="bold" text-anchor="middle" font-size="12px"><text x="183.5" y="94.5">Logic Synthesis</text></g><path d="M 244 90 L 262.88 90" fill="none" stroke="rgb(0, 0, 0)" stroke-miterlimit="10" pointer-events="stroke"/><path d="M 266.88 90 L 262.88 92 L 262.88 88 Z" fill="rgb(0, 0, 0)" stroke="rgb(0, 0, 0)" stroke-miterlimit="10" pointer-events="all"/><rect x="124" y="40" width="120" height="20" rx="3" ry="3" fill="#f5f5f5" stroke="#000000" pointer-events="all"/><g fill="#000000" font-family="Helvetica" font-weight="bold" text-anchor="middle" font-size="12px"><text x="183.5" y="54.5">Flow Setup</text></g><path d="M 244 130.9 L 262.57 131.17" fill="none" stroke="rgb(0, 0, 0)" stroke-miterlimit="10" pointer-events="stroke"/><path d="M 266.57 131.23 L 262.54 133.17 L 262.6 129.17 Z" fill="rgb(0, 0, 0)" stroke="rgb(0, 0, 0)" stroke-miterlimit="10" pointer-events="all"/><rect x="124" y="120" width="120" height="20" rx="3" ry="3" fill="#f5f5f5" stroke="#000000" pointer-events="all"/><g fill="#000000" font-family="Helvetica" font-weight="bold" text-anchor="middle" font-size="12px"><text x="183.5" y="134.5">Pack</text></g><path d="M 244 170.04 L 262.57 170.05" fill="none" stroke="rgb(0, 0, 0)" stroke-miterlimit="10" pointer-events="stroke"/><path d="M 266.57 170.05 L 262.57 172.05 L 262.57 168.05 Z" fill="rgb(0, 0, 0)" stroke="rgb(0, 0, 0)" stroke-miterlimit="10" pointer-events="all"/><rect x="124" y="160" width="120" height="20" rx="3" ry="3" fill="#f5f5f5" stroke="#000000" pointer-events="all"/><g fill="#000000" font-family="Helvetica" font-weight="bold" text-anchor="middle" font-size="12px"><text x="183.5" y="174.5">Place</text></g><path d="M 244 210.04 L 263.19 210.05" fill="none" stroke="rgb(0, 0, 0)" stroke-miterlimit="10" pointer-events="stroke"/><path d="M 267.19 210.05 L 263.19 212.05 L 263.2 208.05 Z" fill="rgb(0, 0, 0)" stroke="rgb(0, 0, 0)" stroke-miterlimit="10" pointer-events="all"/><rect x="124" y="200" width="120" height="20" rx="3" ry="3" fill="#f5f5f5" stroke="#000000" pointer-events="all"/><g fill="#000000" font-family="Helvetica" font-weight="bold" text-anchor="middle" font-size="12px"><text x="183.5" y="214.5">Route</text></g><path d="M 244 250.19 L 262.41 250.24" fill="none" stroke="rgb(0, 0, 0)" stroke-miterlimit="10" pointer-events="stroke"/><path d="M 266.41 250.26 L 262.41 252.24 L 262.42 248.24 Z" fill="rgb(0, 0, 0)" stroke="rgb(0, 0, 0)" stroke-miterlimit="10" pointer-events="all"/><rect x="124" y="240" width="120" height="20" rx="3" ry="3" fill="#f5f5f5" stroke="#000000" pointer-events="all"/><g fill="#000000" font-family="Helvetica" font-weight="bold" text-anchor="middle" font-size="12px"><text x="183.5" y="254.5">Fabric Generation</text></g><path d="M 176.5 66.11 L 184.33 66.11 L 184.33 63 L 191.5 70.5 L 184.33 78 L 184.33 74.89 L 176.5 74.89 Z" fill="#000000" stroke="rgb(0, 0, 0)" stroke-miterlimit="10" transform="rotate(90,184,70.5)" pointer-events="all"/><path d="M 176.5 106.11 L 184.33 106.11 L 184.33 103 L 191.5 110.5 L 184.33 118 L 184.33 114.89 L 176.5 114.89 Z" fill="#000000" stroke="rgb(0, 0, 0)" stroke-miterlimit="10" transform="rotate(90,184,110.5)" pointer-events="all"/><path d="M 176.5 146.11 L 184.33 146.11 L 184.33 143 L 191.5 150.5 L 184.33 158 L 184.33 154.89 L 176.5 154.89 Z" fill="#000000" stroke="rgb(0, 0, 0)" stroke-miterlimit="10" transform="rotate(90,184,150.5)" pointer-events="all"/><path d="M 176.5 186.11 L 184.33 186.11 L 184.33 183 L 191.5 190.5 L 184.33 198 L 184.33 194.89 L 176.5 194.89 Z" fill="#000000" stroke="rgb(0, 0, 0)" stroke-miterlimit="10" transform="rotate(90,184,190.5)" pointer-events="all"/><path d="M 176.5 226.11 L 184.33 226.11 L 184.33 223 L 191.5 230.5 L 184.33 238 L 184.33 234.89 L 176.5 234.89 Z" fill="#000000" stroke="rgb(0, 0, 0)" stroke-miterlimit="10" transform="rotate(90,184,230.5)" pointer-events="all"/><path d="M 268 80 L 417 80 L 424 87 L 424 100 L 268 100 L 268 80 Z" fill="#ffffff" stroke="#000000" stroke-miterlimit="10" pointer-events="all"/><path d="M 417 80 L 417 87 L 424 87" fill="none" stroke="#000000" stroke-miterlimit="10" pointer-events="all"/><g fill="#000000" font-family="Helvetica" font-style="italic" font-size="12px"><text x="269.5" y="93.5">       , .log</text></g><path d="M 100 90 L 110.03 90 Q 120.03 90 112.03 90 L 108.03 90 Q 104.03 90 111.45 90 L 118.88 90" fill="none" stroke="rgb(0, 0, 0)" stroke-miterlimit="10" pointer-events="stroke"/><path d="M 122.88 90 L 118.88 92 L 118.88 88 Z" fill="rgb(0, 0, 0)" stroke="rgb(0, 0, 0)" stroke-miterlimit="10" pointer-events="all"/><path d="M 10 80 L 93 80 L 100 87 L 100 100 L 10 100 L 10 80 Z" fill="#ffffff" stroke="#000000" stroke-miterlimit="10" pointer-events="all"/><path d="M 93 80 L 93 87 L 100 87" fill="none" stroke="#000000" stroke-miterlimit="10" pointer-events="all"/><g fill="#000000" font-family="Helvetica" font-size="12px"><text x="13.5" y="94.5">softcore.v</text></g><path d="M 100 130 L 118.88 130" fill="none" stroke="rgb(0, 0, 0)" stroke-miterlimit="10" pointer-events="stroke"/><path d="M 122.88 130 L 118.88 132 L 118.88 128 Z" fill="rgb(0, 0, 0)" stroke="rgb(0, 0, 0)" stroke-miterlimit="10" pointer-events="all"/><path d="M 100 130 L 104.5 130 Q 109 130 109 140 L 109 200 Q 109 210 113.94 210 L 118.88 210" fill="none" stroke="rgb(0, 0, 0)" stroke-miterlimit="10" pointer-events="stroke"/><path d="M 122.88 210 L 118.88 212 L 118.88 208 Z" fill="rgb(0, 0, 0)" stroke="rgb(0, 0, 0)" stroke-miterlimit="10" pointer-events="all"/><path d="M 10 120 L 93 120 L 100 127 L 100 140 L 10 140 L 10 120 Z" fill="#ffffff" stroke="#000000" stroke-miterlimit="10" pointer-events="all"/><path d="M 93 120 L 93 127 L 100 127" fill="none" stroke="#000000" stroke-miterlimit="10" pointer-events="all"/><g fill="#000000" font-family="Helvetica" font-size="12px"><text x="13.5" y="134.5">vpr_arch.xml</text></g><path d="M 100 170 L 118.88 170" fill="none" stroke="#b85450" stroke-miterlimit="10" pointer-events="stroke"/><path d="M 122.88 170 L 118.88 172 L 118.88 168 Z" fill="#b85450" stroke="#b85450" stroke-miterlimit="10" pointer-events="all"/><path d="M 10 160 L 93 160 L 100 167 L 100 180 L 10 180 L 10 160 Z" fill="rgb(255, 255, 255)" stroke="#b85450" stroke-miterlimit="10" pointer-events="all"/><path d="M 93 160 L 93 167 L 100 167" fill="none" stroke="#b85450" stroke-miterlimit="10" pointer-events="all"/><g fill="rgb(0, 0, 0)" font-family="Helvetica" font-size="12px"><text x="13.5" y="174.5">constraint.sdc</text></g><rect x="114" y="10" width="140" height="20" fill="none" stroke="none" pointer-events="all"/><g fill="#4D9900" font-family="Helvetica" font-weight="bold" font-style="italic" text-anchor="middle" font-size="12px"><text x="183.5" y="24.5">OpenFPGA Flow</text></g><path d="M 268 120 L 417 120 L 424 127 L 424 150 L 268 150 L 268 120 Z" fill="#ffffff" stroke="#000000" stroke-miterlimit="10" pointer-events="all"/><path d="M 417 120 L 417 127 L 424 127" fill="none" stroke="#000000" stroke-miterlimit="10" pointer-events="all"/><g fill="#000000" font-family="Helvetica" font-style="italic" font-size="12px"><text x="269.5" y="145.5">packing_pin_util.rpt</text></g><path d="M 268 160 L 417 160 L 424 167 L 424 190 L 268 190 L 268 160 Z" fill="#ffffff" stroke="#000000" stroke-miterlimit="10" pointer-events="all"/><path d="M 417 160 L 417 167 L 424 167" fill="none" stroke="#000000" stroke-miterlimit="10" pointer-events="all"/><g fill="#000000" font-family="Helvetica" font-style="italic" font-size="12px"><text x="269.5" y="185.5">post_place.report_timing.rpt</text></g><path d="M 268 200 L 417 200 L 424 207 L 424 230 L 268 230 L 268 200 Z" fill="#ffffff" stroke="#000000" stroke-miterlimit="10" pointer-events="all"/><path d="M 417 200 L 417 207 L 424 207" fill="none" stroke="#000000" stroke-miterlimit="10" pointer-events="all"/><g fill="#000000" font-family="Helvetica" font-style="italic" font-size="12px"><text x="269.5" y="225.5">report_timing.setup/hold.rpt</text></g><path d="M 100 50 L 118.88 50" fill="none" stroke="rgb(0, 0, 0)" stroke-miterlimit="10" pointer-events="stroke"/><path d="M 122.88 50 L 118.88 52 L 118.88 48 Z" fill="rgb(0, 0, 0)" stroke="rgb(0, 0, 0)" stroke-miterlimit="10" pointer-events="all"/><path d="M 10 40 L 93 40 L 100 47 L 100 60 L 10 60 L 10 40 Z" fill="#ffffff" stroke="#000000" stroke-miterlimit="10" pointer-events="all"/><path d="M 93 40 L 93 47 L 100 47" fill="none" stroke="#000000" stroke-miterlimit="10" pointer-events="all"/><g fill="#000000" font-family="Helvetica" font-size="12px"><text x="13.5" y="54.5">task.conf</text></g><path d="M 268 240 L 417 240 L 424 247 L 424 270 L 268 270 L 268 240 Z" fill="#ffffff" stroke="#000000" stroke-miterlimit="10" pointer-events="all"/><path d="M 417 240 L 417 247 L 424 247" fill="none" stroke="#000000" stroke-miterlimit="10" pointer-events="all"/><g fill="#000000" font-family="Helvetica" font-style="italic" font-size="12px"><text x="269.5" y="265.5">FPGA ready for PD</text></g><path d="M 100 130 L 104.5 130 Q 109 130 109 140 L 109 155.03 Q 109 165.03 113.94 165.02 L 118.88 165.01" fill="none" stroke="rgb(0, 0, 0)" stroke-miterlimit="10" pointer-events="stroke"/><path d="M 122.88 165 L 118.89 167.01 L 118.88 163.01 Z" fill="rgb(0, 0, 0)" stroke="rgb(0, 0, 0)" stroke-miterlimit="10" pointer-events="all"/><rect x="268" y="80" width="26" height="20" fill="none" stroke="none" pointer-events="all"/><g fill="#000000" font-family="Helvetica" font-weight="bold" font-size="12px"><text x="269.5" y="94.5">.blif</text></g><rect x="268" y="118" width="56" height="20" fill="none" stroke="none" pointer-events="all"/><g fill="#000000" font-family="Helvetica" font-weight="bold" font-size="12px"><text x="269.5" y="132.5">.net</text></g><rect x="268" y="158" width="56" height="20" fill="none" stroke="none" pointer-events="all"/><g fill="#000000" font-family="Helvetica" font-weight="bold" font-size="12px"><text x="269.5" y="172.5">.place</text></g><rect x="268" y="198" width="56" height="20" fill="none" stroke="none" pointer-events="all"/><g fill="#000000" font-family="Helvetica" font-weight="bold" font-size="12px"><text x="269.5" y="212.5">.route</text></g><rect x="268" y="238" width="56" height="20" fill="none" stroke="none" pointer-events="all"/><g fill="#000000" font-family="Helvetica" font-weight="bold" font-size="12px"><text x="269.5" y="252.5">*.v, *.sdc</text></g></g></svg>