<?xml version="1.0" encoding="UTF-8"?>
<!DOCTYPE svg PUBLIC "-//W3C//DTD SVG 1.1//EN" "http://www.w3.org/Graphics/SVG/1.1/DTD/svg11.dtd">
<svg xmlns="http://www.w3.org/2000/svg" xmlns:xlink="http://www.w3.org/1999/xlink" version="1.1" width="706px" height="330px" viewBox="-0.5 -0.5 706 330" style="background-color: rgb(255, 255, 255);"><defs/><g><rect x="230" y="179" width="218" height="140" rx="5.6" ry="5.6" fill="#d5e8d4" stroke="#333333" pointer-events="all"/><g fill="rgb(0, 0, 0)" font-family="Helvetica" font-weight="bold" text-anchor="middle" font-size="11.999999999999998px"><text x="338.5" y="313.5">Parsers &amp; Analyzers</text></g><rect x="230" y="39" width="330" height="130" rx="5.2" ry="5.2" fill="#f5f5f5" stroke="#333333" pointer-events="all"/><g fill="#333333" font-family="Helvetica" font-weight="bold" text-anchor="middle" font-size="11.999999999999998px"><text x="394.5" y="54.5">OpenFPGA Framework</text></g><path d="M 325 94 L 343.76 94" fill="none" stroke="rgb(0, 0, 0)" stroke-width="2" stroke-miterlimit="10" pointer-events="stroke"/><path d="M 349.76 94 L 343.76 97 L 343.76 91 Z" fill="rgb(0, 0, 0)" stroke="rgb(0, 0, 0)" stroke-width="2" stroke-miterlimit="10" pointer-events="all"/><path d="M 282.5 119 L 282.5 125.76" fill="none" stroke="rgb(0, 0, 0)" stroke-width="2" stroke-miterlimit="10" pointer-events="stroke"/><path d="M 282.5 131.76 L 279.5 125.76 L 285.5 125.76 Z" fill="rgb(0, 0, 0)" stroke="rgb(0, 0, 0)" stroke-width="2" stroke-miterlimit="10" pointer-events="all"/><rect x="240" y="69" width="85" height="50" rx="7.5" ry="7.5" fill="#e3e3e3" stroke="#000000" pointer-events="all"/><g fill="#000000" font-family="Helvetica" font-style="italic" text-anchor="middle" font-size="11.999999999999998px"><text x="282" y="105.5">Synthesis</text></g><path d="M 437 94 L 455.76 94" fill="none" stroke="rgb(0, 0, 0)" stroke-width="2" stroke-miterlimit="10" pointer-events="stroke"/><path d="M 461.76 94 L 455.76 97 L 455.76 91 Z" fill="rgb(0, 0, 0)" stroke="rgb(0, 0, 0)" stroke-width="2" stroke-miterlimit="10" pointer-events="all"/><path d="M 394.81 119 L 394.9 125.76" fill="none" stroke="rgb(0, 0, 0)" stroke-width="2" stroke-miterlimit="10" pointer-events="stroke"/><path d="M 394.97 131.76 L 391.9 125.8 L 397.9 125.73 Z" fill="rgb(0, 0, 0)" stroke="rgb(0, 0, 0)" stroke-width="2" stroke-miterlimit="10" pointer-events="all"/><rect x="352" y="69" width="85" height="50" rx="7.5" ry="7.5" fill="#e3e3e3" stroke="#000000" pointer-events="all"/><g fill="#000000" font-family="Helvetica" font-style="italic" text-anchor="middle" font-size="11.999999999999998px"><text x="394" y="105.5">Place&amp;Route</text></g><path d="M 549 94 L 566.04 93.99" fill="none" stroke="rgb(0, 0, 0)" stroke-width="2" stroke-miterlimit="10" pointer-events="stroke"/><path d="M 572.04 93.99 L 566.05 96.99 L 566.04 90.99 Z" fill="rgb(0, 0, 0)" stroke="rgb(0, 0, 0)" stroke-width="2" stroke-miterlimit="10" pointer-events="all"/><rect x="317" y="96.5" width="40" height="20" fill="none" stroke="none" pointer-events="all"/><g fill="rgb(0, 0, 0)" font-family="Helvetica" text-anchor="middle" font-size="11.999999999999998px"><text x="336.5" y="111">.blif</text></g><path d="M 359 134 L 417 134 L 431 148 L 431 199 L 359 199 L 359 134 Z" fill="#f5f5f5" stroke="#333333" stroke-miterlimit="10" pointer-events="all"/><path d="M 417 134 L 417 148 L 431 148" fill="none" stroke="#333333" stroke-miterlimit="10" pointer-events="all"/><g fill="#333333" font-family="Helvetica" font-size="11.999999999999998px"><text x="362.5" y="151.5">.place</text><text x="362.5" y="165.5">.route</text><text x="362.5" y="179.5">.net (xml)</text><text x="362.5" y="193.5">.rpt (timing)</text></g><path d="M 246.5 134 L 304.5 134 L 318.5 148 L 318.5 199 L 246.5 199 L 246.5 134 Z" fill="#f5f5f5" stroke="#333333" stroke-miterlimit="10" pointer-events="all"/><path d="M 304.5 134 L 304.5 148 L 318.5 148" fill="none" stroke="#333333" stroke-miterlimit="10" pointer-events="all"/><g fill="#333333" font-family="Helvetica" font-size="11.999999999999998px"><text x="250" y="165.5">.blif/.eblif</text><text x="250" y="179.5">.v (techmap)</text><text x="250" y="193.5">.logs</text></g><path d="M 125 104 L 134.76 104" fill="none" stroke="rgb(0, 0, 0)" stroke-width="2" stroke-miterlimit="10" pointer-events="stroke"/><path d="M 140.76 104 L 134.76 107 L 134.76 101 Z" fill="rgb(0, 0, 0)" stroke="rgb(0, 0, 0)" stroke-width="2" stroke-miterlimit="10" pointer-events="all"/><rect x="10" y="39" width="115" height="130" rx="4.6" ry="4.6" fill="#dae8fc" stroke="#333333" pointer-events="all"/><g fill="rgb(0, 0, 0)" font-family="Helvetica" font-weight="bold" text-anchor="middle" font-size="11.999999999999998px"><text x="67" y="56.5">Generators</text></g><path d="M 213 104 L 221.76 104" fill="none" stroke="rgb(0, 0, 0)" stroke-width="2" stroke-miterlimit="10" pointer-events="stroke"/><path d="M 227.76 104 L 221.76 107 L 221.76 101 Z" fill="rgb(0, 0, 0)" stroke="rgb(0, 0, 0)" stroke-width="2" stroke-miterlimit="10" pointer-events="all"/><path d="M 143 74 L 199 74 L 213 88 L 213 134 L 143 134 L 143 74 Z" fill="#f5f5f5" stroke="#333333" stroke-miterlimit="10" pointer-events="all"/><path d="M 199 74 L 199 88 L 213 88" fill="none" stroke="#333333" stroke-miterlimit="10" pointer-events="all"/><g fill="#333333" font-family="Helvetica" font-size="11.999999999999998px"><text x="146.5" y="94.5">task.conf</text><text x="146.5" y="108.5">arch.xml</text><text x="146.5" y="122.5">softcore.v</text></g><rect x="17.5" y="69" width="100" height="25" rx="3.75" ry="3.75" fill="#cbd8eb" stroke="#000000" pointer-events="all"/><g fill="rgb(0, 0, 0)" font-family="Helvetica" text-anchor="middle" font-size="10.999999999999998px"><text x="67" y="85.5">OpenFPGA Tasks</text></g><rect x="17.5" y="134" width="100" height="25" rx="3.75" ry="3.75" fill="#cbd8eb" stroke="#000000" stroke-dasharray="2.9999999999999996 2.9999999999999996" pointer-events="all"/><g fill="rgb(0, 0, 0)" font-family="Helvetica" text-anchor="middle" font-size="10.999999999999998px"><text x="67" y="150.5">VPR Architecture</text></g><rect x="17.5" y="102" width="100" height="25" rx="3.75" ry="3.75" fill="#cbd8eb" stroke="#000000" pointer-events="all"/><g fill="rgb(0, 0, 0)" font-family="Helvetica" text-anchor="middle" font-size="10.999999999999998px"><text x="67" y="118.5">Soft-Core</text></g><rect x="10" y="179" width="210" height="140" fill="rgb(255, 255, 255)" stroke="#333333" pointer-events="all"/><g fill="#333333" font-family="Helvetica" font-size="10.999999999999998px"><text x="14.5" y="207.5">- Fixed layout (WxH), channel width</text><text x="14.5" y="220.5">- LUT size (k6N10)</text><text x="14.5" y="233.5">- Heterogeneous blocks: BRAM, DSP</text><text x="14.5" y="272.5">- PicoRV32, VexRiscv, IBEX, ...</text><text x="14.5" y="285.5">- Core ISA RV32 (I, IM, IMC)</text><text x="14.5" y="298.5">- Memory cache size ($I + $D)</text><text x="14.5" y="311.5">- Clock period</text></g><rect x="240" y="209" width="90" height="37" rx="5.55" ry="5.55" fill="#c0d1bf" stroke="#000000" pointer-events="all"/><g fill="rgb(0, 0, 0)" font-family="Helvetica" text-anchor="middle" font-size="10.999999999999998px"><text x="284.5" y="225">Report Yosys &amp;</text><text x="284.5" y="238">VPR Results</text></g><rect x="347" y="209" width="90" height="37" rx="5.55" ry="5.55" fill="#c0d1bf" stroke="#000000" pointer-events="all"/><g fill="rgb(0, 0, 0)" font-family="Helvetica" text-anchor="middle" font-size="10.999999999999998px"><text x="391.5" y="225">Report Place</text><text x="391.5" y="238">Timing (.rpt)</text></g><rect x="240" y="258" width="90" height="37" rx="5.55" ry="5.55" fill="#c0d1bf" stroke="#000000" pointer-events="all"/><g fill="rgb(0, 0, 0)" font-family="Helvetica" text-anchor="middle" font-size="10.999999999999998px"><text x="284.5" y="280.5">...</text></g><rect x="460" y="179" width="235" height="140" fill="rgb(255, 255, 255)" stroke="#333333" pointer-events="all"/><g fill="#333333" font-family="Helvetica" font-size="10.999999999999998px"><text x="464.5" y="207.5">- Extract design blocks: LUT, BRAM, DSP</text><text x="464.5" y="220.5">- Evaluate block mapping</text><text x="464.5" y="246.5">- Extend path descriptions (RTL map to FPGA)</text><text x="464.5" y="259.5">- Fine-tune the soft-core parameters </text><text x="464.5" y="272.5">- Evaluate EDA tool optimizations</text><text x="464.5" y="298.5">- Back-annotated PPA for architecture models  </text><text x="464.5" y="311.5">- Multiple PVT corner evaluation</text></g><rect x="347" y="258" width="90" height="37" rx="5.55" ry="5.55" fill="#c0d1bf" stroke="#000000" pointer-events="all"/><g fill="rgb(0, 0, 0)" font-family="Helvetica" text-anchor="middle" font-size="10.999999999999998px"><text x="391.5" y="274">Report Route</text><text x="391.5" y="287">Paths (.csv)</text></g><path d="M 635 39 L 635.01 34.01 Q 635.03 29.03 625.03 29.03 L 188 29.03 Q 178 29.03 178 39.03 L 178 67.03" fill="none" stroke="rgb(0, 0, 0)" stroke-width="1.4" stroke-miterlimit="10" stroke-dasharray="1.3999999999999997 1.3999999999999997" pointer-events="stroke"/><path d="M 178 72.43 L 175.3 67.03 L 180.7 67.03 Z" fill="rgb(0, 0, 0)" stroke="rgb(0, 0, 0)" stroke-width="1.4" stroke-miterlimit="10" pointer-events="all"/><rect x="575" y="39" width="120" height="130" rx="4.8" ry="4.8" fill="#ffe6cc" stroke="#333333" pointer-events="all"/><g fill="rgb(0, 0, 0)" font-family="Helvetica" font-weight="bold" text-anchor="middle" font-size="11.999999999999998px"><text x="634.5" y="56.5">Physical Design</text></g><rect x="585" y="126" width="100" height="30" rx="4.5" ry="4.5" fill="#fad398" stroke="#000000" stroke-dasharray="2.9999999999999996 2.9999999999999996" pointer-events="all"/><g fill="rgb(0, 0, 0)" font-family="Helvetica" font-style="italic" text-anchor="middle" font-size="11.999999999999998px"><text x="634.5" y="145.5">PPA Extraction</text></g><rect x="585" y="69" width="100" height="50" rx="7.5" ry="7.5" fill="#fad398" stroke="#000000" stroke-dasharray="2.9999999999999996 2.9999999999999996" pointer-events="all"/><g fill="rgb(0, 0, 0)" font-family="Helvetica" text-anchor="middle" font-size="11.999999999999998px"><text x="634.5" y="91.5">PrimeTime PX</text><text x="634.5" y="105.5">OpenSTA</text></g><rect x="464" y="10" width="170" height="20" fill="none" stroke="none" pointer-events="all"/><g fill="rgb(0, 0, 0)" font-family="Helvetica" font-style="italic" text-anchor="middle" font-size="11.999999999999998px"><text x="548.5" y="24.5">Architecture Model Annotations</text></g><rect x="464" y="99" width="85" height="57" rx="8.55" ry="8.55" fill="#f5f5f5" stroke="#000000" pointer-events="all"/><g fill="#000000" font-family="Helvetica" font-style="italic" text-anchor="middle" font-size="11.999999999999998px"><text x="506" y="134.5">Bitstreams, </text><text x="506" y="148.5">Tests, ...</text></g><rect x="464" y="69" width="85" height="50" rx="7.5" ry="7.5" fill="#e3e3e3" stroke="#000000" pointer-events="all"/><g fill="#000000" font-family="Helvetica" font-style="italic" text-anchor="middle" font-size="11.999999999999998px"><text x="506" y="105.5">Generate RTL</text></g><rect x="460" y="185" width="230" height="10" fill="none" stroke="none" pointer-events="all"/><g fill="#333333" font-family="Helvetica" font-weight="bold" font-style="italic" font-size="10.999999999999998px"><text x="464.5" y="194">Synthesis Results</text></g><rect x="460" y="225.5" width="230" height="10" fill="none" stroke="none" pointer-events="all"/><g fill="#333333" font-family="Helvetica" font-weight="bold" font-style="italic" font-size="10.999999999999998px"><text x="464.5" y="234.5">Place&amp;Route Results</text></g><rect x="460" y="277.5" width="230" height="10" fill="none" stroke="none" pointer-events="all"/><g fill="#333333" font-family="Helvetica" font-weight="bold" font-style="italic" font-size="10.999999999999998px"><text x="464.5" y="286.5">Physical Design Results</text></g><rect x="10" y="185" width="210" height="10" fill="none" stroke="none" pointer-events="all"/><g fill="#333333" font-family="Helvetica" font-weight="bold" font-style="italic" font-size="10.999999999999998px"><text x="14.5" y="194">FPGA Architecture Parameters</text></g><rect x="10" y="251" width="210" height="10" fill="none" stroke="none" pointer-events="all"/><g fill="#333333" font-family="Helvetica" font-weight="bold" font-style="italic" font-size="10.999999999999998px"><text x="14.5" y="260">Soft-core Design Parameters</text></g><rect x="240" y="81" width="85" height="10" fill="none" stroke="none" pointer-events="all"/><g fill="#000000" font-family="Helvetica" font-weight="bold" text-anchor="middle" font-size="11.999999999999998px"><text x="283.5" y="90.5">Yosys</text></g><rect x="352" y="81" width="85" height="10" fill="none" stroke="none" pointer-events="all"/><g fill="#000000" font-family="Helvetica" font-weight="bold" text-anchor="middle" font-size="11.999999999999998px"><text x="395.5" y="90.5">VPR</text></g><rect x="464" y="81" width="85" height="10" fill="none" stroke="none" pointer-events="all"/><g fill="#000000" font-family="Helvetica" font-weight="bold" text-anchor="middle" font-size="11.999999999999998px"><text x="507.5" y="90.5">OpenFPGA</text></g></g></svg>